<?xml version="1.0" encoding="utf-8"?>
<!-- Generator: Adobe Illustrator 16.0.0, SVG Export Plug-In . SVG Version: 6.00 Build 0)  -->
<!DOCTYPE svg PUBLIC "-//W3C//DTD SVG 1.1//EN" "http://www.w3.org/Graphics/SVG/1.1/DTD/svg11.dtd">
<svg version="1.1" id="Layer_1" xmlns="http://www.w3.org/2000/svg" xmlns:xlink="http://www.w3.org/1999/xlink" x="0px" y="0px"
	 width="250px" height="250px" viewBox="0 0 250 250" enable-background="new 0 0 250 250" xml:space="preserve">
<g>
	<g>
		<path fill="#E84329" d="M125,248.5c68.206,0,123.5-55.293,123.5-123.5C248.5,56.793,193.206,1.5,125,1.5S1.5,56.793,1.5,125
			C1.5,193.207,56.794,248.5,125,248.5"/>
		<path fill="none" stroke="#FFFFFF" stroke-width="3" stroke-miterlimit="10" d="M106.978,169.056
			c-0.006-0.033,0.751-10.423-3.126-15.612c-13.305-17.199-14.133-33.558-14.133-34.712c0-19.578,15.789-35.433,35.279-35.433
			c19.493,0,35.289,15.854,35.289,35.433c0,1.155-0.854,17.521-14.146,34.712c-3.892,5.195-3.221,15.58-3.211,15.612"/>
	</g>
	<path fill="none" stroke="#FFFFFF" stroke-width="3" d="M110.072,129.652l3.025,2.592l3.026-2.592l3.026,2.592l3.02-2.592
		l3.023,2.592l3.032-2.592l3.026,2.592l3.033-2.592l3.035,2.592l3.031-2.592 M133.8,168.944l6.544-41.122 M116.205,168.938
		l-6.552-41.116"/>
	<path fill="none" stroke="#FFFFFF" stroke-width="3" stroke-miterlimit="10" d="M74.667,147.462l10.379-5.967 M175.329,145.927
		l-10.377-5.971 M153.292,66.51l-5.99,10.342 M174.888,87.395l-10.38,5.968 M183.117,116.245h-11.979 M66.883,118.016h11.979
		 M74.223,88.929l10.378,5.97 M95.172,67.395l5.988,10.344 M124.108,59.191v11.942"/>
	<g>
		<path fill="none" stroke="#FFFFFF" stroke-width="3" stroke-linecap="round" stroke-linejoin="bevel" stroke-miterlimit="10" d="
			M145.158,177.003c0-1.339-0.921-2.446-2.173-2.803c1.254-0.343,2.173-1.459,2.173-2.801c0-1.572-1.264-2.849-2.852-2.912h-5.954
			h-22.7h-5.956c-1.583,0.063-2.854,1.34-2.854,2.912c0,1.339,0.922,2.453,2.174,2.801c-1.252,0.352-2.174,1.464-2.174,2.803
			c0,1.342,0.922,2.456,2.174,2.804c-1.252,0.347-2.174,1.463-2.174,2.806c0,1.574,1.27,2.846,2.854,2.915v0.254
			c0,2.151,1.779,3.899,3.973,3.899h5.952h14.767h5.953c2.194,0,3.971-1.748,3.971-3.899v-0.254
			c1.586-0.069,2.854-1.341,2.854-2.915c0-1.341-0.922-2.451-2.175-2.806C144.237,179.459,145.158,178.343,145.158,177.003z"/>
	</g>
	<path fill="none" stroke="#FFFFFF" stroke-width="3" d="M106.035,179.54h29.957 M106.09,174.296h29.956"/>
</g>
</svg>
